<?xml version="1.0" encoding="utf-8"?>
<!-- Generator: Adobe Illustrator 24.0.2, SVG Export Plug-In . SVG Version: 6.00 Build 0)  -->
<svg version="1.1" id="Layer_1" xmlns="http://www.w3.org/2000/svg" xmlns:xlink="http://www.w3.org/1999/xlink" x="0px" y="0px"
	 viewBox="0 0 8 8" style="enable-background:new 0 0 8 8;" xml:space="preserve">
<style type="text/css">
	.st0{fill:#92272D;}
</style>
<path class="st0" d="M1.2,0C1.1,0,1,0.1,1,0.2v7.6C1,7.9,1.1,8,1.2,8h4.6C5.9,8,6,7.9,6,7.8V0.2C6,0.1,5.9,0,5.8,0
	C5.8,0,1.2,0,1.2,0z M2,1h3v5H2V1z M3.5,6.5C3.8,6.5,4,6.7,4,7S3.8,7.5,3.5,7.5S3,7.3,3,7S3.2,6.5,3.5,6.5z"/>
</svg>
