<svg xmlns="http://www.w3.org/2000/svg" viewBox="0 0 64 64"><defs><style>.cls-1{fill:#fff;}.cls-1,.cls-2{fill-rule:evenodd;}.cls-2{fill:#003361;}</style></defs><title>logo_kirp_signet</title><g id="Layer_1" data-name="Layer 1"><polygon class="cls-1" points="50.2 51.21 31.87 54.14 12.86 50.48 17.07 43.85 31.45 45.11 50.2 43.35 50.2 51.21"/><path class="cls-2" d="M32.26,56.69c0,.25.15.27.15.53a.36.36,0,1,1-.71,0c0-.27.14-.27.12-.53l-1.49,0L32,59.64l1.67-3Zm-11.4,5.18c3.48,2.63,8.37,2.35,11,0-2.55-3.18-6-2.76-11,0m11.25,0c2.63,2.34,7.52,2.62,11,0-5-2.75-8.47-3.17-11,0m14.54-6.4-1.06.1.58-.84a7.59,7.59,0,0,0-4.1,1.35l.2-.67a5.17,5.17,0,0,0-2.81,1.5l.4-.92-2,.18-3.39,2.6,2.23-2.25-2.5.12L32.3,60.53c1.93-.78,3.55-2.09,6.79-.85,7.43,3.19,7.31,2.31,12-1.83A18.89,18.89,0,0,0,40.3,58c1.85-1.38,3.62-1.78,6.51-1.55q7.66,1.11,10.69-5.41c-1.52.89-6.25,3.74-7.88,3.6L58,50.39l.64-.84c-6.89,2-10.23,3.7-12,5.93m-15,5.05L29.8,56.65l-2.49-.12,2.22,2.25-3.38-2.6-2-.18.4.92a5.2,5.2,0,0,0-2.81-1.5l.2.67a7.62,7.62,0,0,0-4.1-1.35l.57.84-1.05-.1c-1.73-2.23-5.07-3.95-12-5.93l.64.84,8.35,4.27C12.73,54.8,8,52,6.48,51.06q3,6.52,10.69,5.41c2.89-.23,4.66.17,6.51,1.55a18.92,18.92,0,0,0-10.81-.17c4.71,4.14,4.59,5,12,1.83,3.24-1.24,4.86.07,6.79.85M58,38.44c.22,1,.41,1.94.58,2.91a60.79,60.79,0,0,1,4.21-6.93,15.45,15.45,0,0,0-4.79,4m-.12-10.82-4.36-2.53a67.67,67.67,0,0,1,4.26,12.38c4.53-3.36,6.29-7.16,3.84-11.89a13.65,13.65,0,0,0-3.51,8.34l0-4.13c3.47-6.62,3.59-8,.05-13.64-2,3.86-1.7,7.67-.3,11.47m1.44,17.57a16.59,16.59,0,0,0,4.43-11.07,15.55,15.55,0,0,0-4.43,11.07M32.42,1.61l.35.11a36.55,36.55,0,0,1,11.32,8.74l.61.45h0l3.39,1.72-2.59-.52c.57.69,1.12,1.39,1.65,2.12l1.75-.11-1.25.79c.4.56.79,1.12,1.17,1.7l3.78,1.6-3-.42c.57.89,1.11,1.81,1.63,2.74l2.68.44-2.14.21a11.21,11.21,0,0,0,4.92,5.26,26.18,26.18,0,0,1,.49-10.74c.41-1.51-1.28-3.65-4.48-6.4-.92,3.14-.48,6.2,2.18,9.56l-.1.09c-2.34-1.44-3.23-3.66-2.84-8.38.34-3.33-3.81-6.15-8.81-8.08,0,3.48,2.7,6.91,6.86,9.8A13,13,0,0,1,42.23,2.08L33.33.26l6.28,4.1a28.82,28.82,0,0,0-7.22-2.77ZM4.69,45.19A15.55,15.55,0,0,0,.26,34.12,16.59,16.59,0,0,0,4.69,45.19m1.54-7.72a67.67,67.67,0,0,1,4.26-12.38L6.13,27.62c1.4-3.8,1.67-7.61-.3-11.47-3.54,5.68-3.42,7,0,13.64l0,4.13a13.65,13.65,0,0,0-3.51-8.34c-2.45,4.73-.69,8.53,3.84,11.89m-.22,1a15.56,15.56,0,0,0-4.79-4,62.26,62.26,0,0,1,4.21,6.93c.17-1,.36-1.94.58-2.91m1.32-12a11.21,11.21,0,0,0,4.92-5.26L10.11,21l2.68-.44c.52-.93,1.06-1.85,1.62-2.74l-3,.42,3.78-1.6c.38-.58.77-1.14,1.17-1.7l-1.25-.79,1.75.11c.53-.73,1.08-1.43,1.65-2.12l-2.59.52,3.39-1.72h0l.61-.45A36.55,36.55,0,0,1,31.23,1.72l.35-.11,0,0a28.82,28.82,0,0,0-7.22,2.77L30.66.26,21.77,2.08A13,13,0,0,1,14,12.29C18.19,9.4,20.84,6,20.88,2.49c-5,1.93-9.14,4.75-8.8,8.08.39,4.72-.5,6.94-2.85,8.38l-.09-.09c2.66-3.36,3.1-6.42,2.18-9.56-3.2,2.75-4.89,4.89-4.48,6.4a26.35,26.35,0,0,1,.49,10.74M25,50.34a.53.53,0,0,0-.48.17,1.23,1.23,0,0,0-.26.69,1.26,1.26,0,0,0,.09.73.54.54,0,0,0,.89.11,1.59,1.59,0,0,0,.18-1.42.53.53,0,0,0-.42-.28M17.34,50l.6.15-.06-1.07ZM34.51,46.5l-.27,1,.61,0ZM16.08,48.75a.32.32,0,0,0,0-.21.31.31,0,0,0-.1-.15,1.52,1.52,0,0,0-.35-.13l-.34-.12-.21.67.32.1a1.47,1.47,0,0,0,.38.1A.27.27,0,0,0,16,49a.35.35,0,0,0,.11-.2m4.29.79a2,2,0,0,0-.36-.1l-.2,0-.38,1.78.33.07a1,1,0,0,0,.32,0,.66.66,0,0,0,.19-.09.83.83,0,0,0,.15-.24,2.2,2.2,0,0,0,.14-.45,2.58,2.58,0,0,0,.06-.49.59.59,0,0,0-.07-.29.45.45,0,0,0-.18-.18m21.14-3.49a.34.34,0,0,0,.16-.13.38.38,0,0,0,0-.22.42.42,0,0,0-.09-.19.23.23,0,0,0-.15-.07,2.4,2.4,0,0,0-.43.06l-.26,0,.11.63.3-.05.33-.07m1.92.19.6-.14-.55-.92Zm-1.72.28a1.26,1.26,0,0,0-.38,0l-.37.06.13.72.42-.07a1.16,1.16,0,0,0,.34-.09A.23.23,0,0,0,42,47a.39.39,0,0,0,0-.22.41.41,0,0,0-.1-.21.26.26,0,0,0-.17-.09m-5.48,5.29.62,0-.39-1ZM24.46,47.17l.61.07-.19-1.05Zm-18.21.62c15.18,9.62,37.45,8.47,51.5,0-.34-16.56-10.13-37.55-24.92-44.6a1.79,1.79,0,0,0-1.64,0C21.61,7.08,6.93,24.78,6.25,47.79M15.9,49.7a4.42,4.42,0,0,1,.11.51l.09.6-.51-.17L15.46,50a3.33,3.33,0,0,0-.11-.47.28.28,0,0,0-.09-.14.51.51,0,0,0-.21-.1l-.09,0-.35,1.09-.44-.14L15,47.56l.92.3a1.19,1.19,0,0,1,.47.23.58.58,0,0,1,.17.33.86.86,0,0,1,0,.44.76.76,0,0,1-.31.45.67.67,0,0,1-.49.1,1.4,1.4,0,0,1,.16.29M18,51.3l0-.65-.88-.22-.33.56-.47-.11,1.52-2.46.47.12.21,2.88Zm3-.69a2,2,0,0,1-.21.59,1.14,1.14,0,0,1-.29.37.71.71,0,0,1-.34.16,1,1,0,0,1-.46,0l-.83-.18.57-2.69.81.17a1.08,1.08,0,0,1,.45.17.7.7,0,0,1,.24.29,1.12,1.12,0,0,1,.12.47,2.73,2.73,0,0,1-.06.66m-.18-5.7.6.13-1.05.87.52,1.83-.57-.12L20,46.22l-.46.38-.17.81-.45-.1.58-2.69.44.1-.25,1.19Zm.84.2.95.13a1.56,1.56,0,0,1,.51.15.55.55,0,0,1,.22.29.94.94,0,0,1,0,.45.8.8,0,0,1-.22.49.72.72,0,0,1-.48.19,1,1,0,0,1,.21.26,3.31,3.31,0,0,1,.2.48l.19.57L22.77,48l-.25-.64a2.33,2.33,0,0,0-.18-.43.3.3,0,0,0-.12-.13.63.63,0,0,0-.22-.07h-.09l-.16,1.14-.45-.06Zm.23,6.42a.49.49,0,0,0,.36.28.4.4,0,0,0,.33-.08.88.88,0,0,0,.26-.41l.41.25a1.17,1.17,0,0,1-.46.6.83.83,0,0,1-.62.11.85.85,0,0,1-.64-.46,1.62,1.62,0,0,1-.13-1.09,1.71,1.71,0,0,1,.51-1,.92.92,0,0,1,.79-.21.91.91,0,0,1,.58.37,1.17,1.17,0,0,1,.16.58l-.46,0a.64.64,0,0,0-.11-.36.42.42,0,0,0-.28-.17.49.49,0,0,0-.44.14,1.27,1.27,0,0,0-.28.68,1.42,1.42,0,0,0,0,.76m3.37-3.16-.12-.65-.9-.11-.26.6-.48-.06,1.21-2.62.48,0,.56,2.85Zm.28.86-.49.5-.27,0,.28-.53Zm.37,2.18a1.67,1.67,0,0,1-.45,1,.94.94,0,0,1-.81.25.93.93,0,0,1-.72-.43,1.61,1.61,0,0,1-.2-1.1,2,2,0,0,1,.25-.79,1,1,0,0,1,.43-.42,1,1,0,0,1,.59-.09,1,1,0,0,1,.74.47,1.6,1.6,0,0,1,.17,1.08m.26-3.11a1.05,1.05,0,0,1-.13-.68l.43,0a.81.81,0,0,0,0,.35A.25.25,0,0,0,27,48a1,1,0,0,0,.11-.44l.15-1.77.46,0-.16,1.73a1.88,1.88,0,0,1-.13.62.81.81,0,0,1-.28.3.83.83,0,0,1-.43.07.61.61,0,0,1-.48-.27M28.49,53,28,53l-.27-2.09-.62,2-.49,0-.3-2.79.47,0L27,52l.57-1.85.54.05.23,1.95.51-1.88.46,0Zm1.39-4.59a.93.93,0,0,1-.79.3.91.91,0,0,1-.75-.38,1.64,1.64,0,0,1-.27-1.08,2,2,0,0,1,.19-.8,1,1,0,0,1,.4-.45,1,1,0,0,1,.58-.13,1,1,0,0,1,.77.41,1.64,1.64,0,0,1,.25,1.07,1.67,1.67,0,0,1-.38,1.06m2.74,3.28a.67.67,0,0,1-.29.29,1.52,1.52,0,0,1-.58.08h-.3v1H31V50.35h.73a2.69,2.69,0,0,1,.54,0,.68.68,0,0,1,.33.28.93.93,0,0,1,.13.53,1.06,1.06,0,0,1-.11.5m-.19-3L32,46.67l-.45,2.06H31L30.5,46H31l.33,1.9.42-1.9h.54l.4,1.93L33,46h.46l-.55,2.76ZM34.76,53l-.35-.59c-.12-.21-.21-.34-.25-.4a.41.41,0,0,0-.14-.1.67.67,0,0,0-.23,0h-.1l0,1.14-.45,0-.1-2.75,1,0a1.46,1.46,0,0,1,.53,0,.59.59,0,0,1,.27.25.83.83,0,0,1,.11.43.81.81,0,0,1-.13.53.7.7,0,0,1-.43.26,1.36,1.36,0,0,1,.25.22,4.26,4.26,0,0,1,.27.44l.3.53Zm-1.29-4.36.78-2.78.48,0,1,2.72-.49,0L35,48l-.9,0-.17.63Zm3.8,4.18L37,52.22l-.89.06-.15.64-.48,0,.69-2.8.48,0,1.09,2.69Zm2.91-.37-.48.07-.73-2-.16,2.1-.49.07-.92-2.65.47-.06.6,1.82.14-1.93.54-.07.66,1.85.07-2,.46-.06Zm-2.91-6.84.45,0L38,48.31l-.45,0Zm2.91,1.89.07.46-1.82.25-.07-.49.93-1.94-1,.15-.06-.46,1.63-.23.06.43-1,2Zm2.08-1.14a.72.72,0,0,1,.19.4.9.9,0,0,1-.06.52.59.59,0,0,1-.29.31,3.39,3.39,0,0,1-.62.15l-.76.13-.47-2.71.89-.16a1.35,1.35,0,0,1,.52,0,.59.59,0,0,1,.29.19.75.75,0,0,1,.14.73.62.62,0,0,1-.18.28.57.57,0,0,1,.35.18M42.44,52l-1.21-1.61.31,1.76-.42.08-.48-2.71.44-.08,1.23,1.65L42,49.31l.42-.07L42.89,52Zm2.11-.46-.44.1-.24-1.14-1.14-1.38.52-.11L44,50l.29-1.17.51-.11-.48,1.73Zm.08-4.5-.35-.56-.87.22,0,.65-.47.12.19-2.89.47-.11L45.11,47Zm2.58,3.65a.91.91,0,0,1-1.29.21,1.59,1.59,0,0,1-.58-.94,1.69,1.69,0,0,1,0-1.14.91.91,0,0,1,.63-.53.85.85,0,0,1,.68.09,1.09,1.09,0,0,1,.4.46l-.41.24a.61.61,0,0,0-.25-.29.44.44,0,0,0-.32,0,.46.46,0,0,0-.34.31,1.27,1.27,0,0,0,0,.74,1.37,1.37,0,0,0,.34.67.48.48,0,0,0,.45.11.41.41,0,0,0,.26-.21,1,1,0,0,0,.07-.48l.47,0a1.25,1.25,0,0,1-.16.74m2.18-.5L49,49.07l-.86.26.35,1.15-.43.14L47.29,48l.44-.13.32,1,.85-.26-.32-1,.44-.13.81,2.63Zm-17.28-45C47,11.85,53.56,31.2,54.63,39.34c-10.8,6.5-34.58,7.5-45.22-.26.21-7.72,9.42-28.82,22.7-33.9M29.22,46.36a.54.54,0,0,0-.47.2,1.27,1.27,0,0,0-.21.71,1.18,1.18,0,0,0,.14.72.56.56,0,0,0,.44.26.53.53,0,0,0,.45-.21,1.52,1.52,0,0,0,.08-1.43.52.52,0,0,0-.43-.25m5.37,4.71a.53.53,0,0,0-.06-.21.33.33,0,0,0-.15-.11h-.73l0,.7.34,0a1.4,1.4,0,0,0,.39,0,.2.2,0,0,0,.13-.11.38.38,0,0,0,.05-.22m-2.54-.22a1.41,1.41,0,0,0-.37,0h-.23v.78h.26a1.24,1.24,0,0,0,.34,0,.37.37,0,0,0,.15-.13.47.47,0,0,0,0-.46.27.27,0,0,0-.15-.13M22.7,46.4a.24.24,0,0,0,.15-.09.4.4,0,0,0,.08-.21.34.34,0,0,0,0-.21.24.24,0,0,0-.13-.13,1.32,1.32,0,0,0-.36-.07l-.36,0-.09.69.33,0a1.72,1.72,0,0,0,.4,0m2-18.63A14.53,14.53,0,0,0,27.41,30l3.21,2.14c.57.38,1.16.79,1.79,1.2,1.06.72,1.68,1.16,1.88,1.32a4.43,4.43,0,0,1,.81.82A2.69,2.69,0,0,1,35.59,37,2.6,2.6,0,0,1,34,39.63a5.51,5.51,0,0,1-2.26.38,3.19,3.19,0,0,1-3-1.49,6.43,6.43,0,0,1-.63-2.58H24.88A9,9,0,0,0,26,40.11c1.13,1.82,3.11,2.72,5.93,2.72a7.17,7.17,0,0,0,5.12-1.77A5.53,5.53,0,0,0,39,36.87a4.89,4.89,0,0,0-.52-2.24A6.52,6.52,0,0,0,37,32.71a13,13,0,0,0,2.51-2.18,5.73,5.73,0,0,0,1.3-3.73q0-3.78-6.07-7.16c-2.28-1.27-3.86-2.2-4.75-2.82a3.1,3.1,0,0,1-1-1.08,2.81,2.81,0,0,1-.34-1.39,2.74,2.74,0,0,1,.9-2.14,3.79,3.79,0,0,1,2.59-.79,3.15,3.15,0,0,1,3,1.47,6.09,6.09,0,0,1,.6,2.52h3.16a8,8,0,0,0-.92-3.88c-1.09-1.91-3.09-2.86-6-2.86a6.4,6.4,0,0,0-4.74,1.79,5.94,5.94,0,0,0-1.8,4.39,5.09,5.09,0,0,0,.49,2.21,5.83,5.83,0,0,0,1.23,1.55,10,10,0,0,0-2.8,2.44,5,5,0,0,0-1.07,3.12,5.33,5.33,0,0,0,1.42,3.6m2.72-6.59A6,6,0,0,1,29,20.06l5.25,3.19A14.07,14.07,0,0,1,36.63,25a3.3,3.3,0,0,1,1,2.39,3.9,3.9,0,0,1-.9,2.62,5.59,5.59,0,0,1-1.57,1.22l-6.78-4.35A4.13,4.13,0,0,1,26.67,25a3.64,3.64,0,0,1-.24-1.37,3.37,3.37,0,0,1,1-2.43"/></g></svg>