<svg id="logo_kirp_signet" xmlns="http://www.w3.org/2000/svg" viewBox="0 0 405 103"><defs><style>.cls-1{fill:#fff;}.cls-1,.cls-2{fill-rule:evenodd;}.cls-2{fill:#003361;}</style></defs><title>logo_kirp_landscape</title><path class="cls-1" d="M50.68,87.28c-15.12,0-29-3.7-40.13-10.68C11.71,40.82,34.75,12,50.29,5.69a3.24,3.24,0,0,1,1.14-.29,2.29,2.29,0,0,1,.75.17l.42.13c24.05,11.46,39,45,39.67,70.89C80.71,83.48,66,87.28,50.68,87.28M51.41,8C29.61,16.32,15,50.61,14.65,62.86v.25l.2.15c7.75,5.65,20.65,8.89,35.41,8.89S79.33,68.91,88,63.69l.27-.16,0-.31C86.82,52.49,77.1,19.32,51.78,8L51.6,7.9Z"/><path class="cls-2" d="M10.06,76.85c24.38,15.45,60.13,13.61,82.69,0-.54-26.58-16.26-60.3-40-71.61a2.83,2.83,0,0,0-2.63,0c-15.39,6.22-39,34.65-40,71.6m24.7,6.74-4-1.1-1.34-4.74-1,.6-.88,3.25-3.33-.92L27,70.46l3.33.92-.9,3.3,3.84-2.48,3.86,1.07L32.41,76.1Zm10.37,1.23-3.43-.38,1.17-10.53,3.42.39Zm14.25-.29A9.86,9.86,0,0,1,59,82.72c-.14-1-.41-1.52-.81-1.61a3.26,3.26,0,0,0-.72-.07q-.41,0-1,.06l-.51.05.36,3.69-3.42.34-1-10.54,5.06-.51a5.82,5.82,0,0,1,3.81.54,2.67,2.67,0,0,1,1,2,2.86,2.86,0,0,1-.32,1.78,2.28,2.28,0,0,1-1.19,1,2.69,2.69,0,0,1,1.59.91,4.2,4.2,0,0,1,.44,1.72l.08.82a2.87,2.87,0,0,0,.16.8.28.28,0,0,0,.31.2l0,.31Zm17.5-8.16a4.7,4.7,0,0,1-3,2l-1.7.48L73.06,82l-3.31.93L66.92,72.75l4.84-1.37a5.09,5.09,0,0,1,3.51,0,3.41,3.41,0,0,1,1.82,2.37,3.33,3.33,0,0,1-.21,2.62M51.58,8.42c24,10.72,34.45,41.8,36.17,54.86-17.34,10.44-55.53,12-72.61-.41.33-12.39,15.12-46.28,36.44-54.45m6.57,68.35a1.56,1.56,0,0,0-1-.18l-1.64.17.2,2.08,1.44-.14a2,2,0,0,0,1.23-.44.9.9,0,0,0,.2-.73.93.93,0,0,0-.45-.76m15.2-2.93a2.47,2.47,0,0,0-1.48.07l-1,.28.63,2.26,1.43-.4a1.61,1.61,0,0,0,.82-.49,1.22,1.22,0,0,0,.13-1.06,1,1,0,0,0-.55-.66M74.94,89.2l-1.7.16L74.16,88a12.39,12.39,0,0,0-6.59,2.17l.32-1.07a8.36,8.36,0,0,0-4.51,2.4L64,90l-3.27.28L55.33,94.5l3.57-3.62-4,.2-3,6.24C55,96.06,57.59,94,62.79,96c11.93,5.12,11.74,3.71,19.29-2.93a30.29,30.29,0,0,0-17.35.27c3-2.22,5.82-2.87,10.45-2.5q12.33,1.8,17.17-8.68c-2.43,1.43-10,6-12.65,5.79L93.11,81l1-1.35c-11,3.19-16.43,5.94-19.19,9.52m-23.12,2c0,.41.25.43.25.85a.58.58,0,1,1-1.15,0c0-.43.24-.43.2-.85l-2.39,0,2.67,4.71,2.69-4.77Zm-.93,6.17-3-6.24-4-.2,3.57,3.62L42,90.32,38.75,90l.65,1.47a8.38,8.38,0,0,0-4.52-2.4l.33,1.07A12.39,12.39,0,0,0,28.62,88l.92,1.35-1.7-.16c-2.77-3.58-8.14-6.33-19.19-9.52l1,1.35L23.08,87.9c-2.62.21-10.22-4.36-12.65-5.79q4.85,10.47,17.16,8.68c4.63-.37,7.48.28,10.46,2.5A30.33,30.33,0,0,0,20.69,93c7.56,6.64,7.37,8,19.3,2.93,5.2-2,7.81.11,10.9,1.37M33.51,99.46c5.6,4.22,13.46,3.77,17.69,0-4.09-5.1-9.64-4.43-17.69,0m68.86-44.55c-5.27,5.87-7.06,11.32-7.11,17.78a26.66,26.66,0,0,0,7.11-17.78m-9.22,6.93c.34,1.56.65,3.13.92,4.68a98.4,98.4,0,0,1,6.76-11.14c-1.66.6-6.32,4.34-7.68,6.46M93,44.46,86,40.4a108.59,108.59,0,0,1,6.84,19.89c7.27-5.41,10.09-11.5,6.16-19.1-3.31,3.37-5,8-5.63,13.39l0-6.63c5.57-10.63,5.77-12.78.09-21.91-3.18,6.2-2.74,12.33-.49,18.42M52.08,2.69c.17.06.35.13.57.19a58.87,58.87,0,0,1,18.18,14l1,.74h0l5.44,2.76-4.15-.83c.9,1.1,1.79,2.24,2.65,3.4l2.8-.18-2,1.27c.64.9,1.27,1.81,1.88,2.73l6.07,2.58-4.85-.69c.9,1.44,1.77,2.92,2.6,4.41l4.3.71-3.43.34c1.35,3.59,4.49,6.35,7.9,8.44a42.35,42.35,0,0,1,.78-17.24c.67-2.43-2-5.86-7.19-10.29-1.47,5.05-.76,10,3.51,15.36l-.16.14c-3.76-2.3-5.2-5.88-4.56-13.45.55-5.35-6.12-9.89-14.14-13,.06,5.58,4.33,11.09,11,15.73A20.8,20.8,0,0,1,67.84,3.45L53.55.54,63.63,7.12A46.46,46.46,0,0,0,52,2.66Zm-.5,96.79c4.23,3.75,12.08,4.2,17.69,0-8-4.41-13.6-5.09-17.69,0M11.8,42.57c3.41-2.09,6.55-4.85,7.89-8.44l-3.43-.34,4.3-.71c.84-1.49,1.7-3,2.61-4.41l-4.86.69,6.07-2.58c.61-.92,1.24-1.83,1.88-2.73l-2-1.27,2.8.18c.86-1.16,1.74-2.3,2.65-3.4l-4.16.83L31,17.63h0l1-.74a59,59,0,0,1,18.18-14c.22-.06.4-.13.57-.19l0,0A46.46,46.46,0,0,0,39.18,7.12L49.26.54,35,3.45A20.83,20.83,0,0,1,22.54,19.84c6.68-4.64,11-10.15,11-15.73-8,3.09-14.7,7.63-14.15,13,.64,7.57-.8,11.15-4.56,13.45l-.15-.14C19,25,19.67,20.09,18.2,15,13.06,19.47,10.34,22.9,11,25.33a42.54,42.54,0,0,1,.79,17.24M7.55,72.69c0-6.46-1.83-11.91-7.11-17.78A26.66,26.66,0,0,0,7.55,72.69M9.66,61.84C8.3,59.72,3.64,56,2,55.38A98.4,98.4,0,0,1,8.74,66.52c.27-1.55.58-3.12.92-4.68M10,60.29A108.59,108.59,0,0,1,16.86,40.4l-7,4.06c2.26-6.09,2.69-12.22-.48-18.42C3.69,35.17,3.89,37.32,9.46,48l0,6.63c-.61-5.43-2.31-10-5.63-13.39C-.07,48.79,2.75,54.88,10,60.29m34-12,5.16,3.44,2.87,1.93c1.7,1.15,2.71,1.86,3,2.1A7.61,7.61,0,0,1,56.38,57a4.3,4.3,0,0,1,.79,2.49,4.19,4.19,0,0,1-2.56,4.23,9.11,9.11,0,0,1-3.62.61q-3.47,0-4.84-2.39a10.15,10.15,0,0,1-1-4.16H40a14.43,14.43,0,0,0,1.83,6.7q2.72,4.38,9.53,4.38a11.52,11.52,0,0,0,8.21-2.85,8.89,8.89,0,0,0,3.05-6.73,8,8,0,0,0-.84-3.61,10.87,10.87,0,0,0-2.38-3.08,20.76,20.76,0,0,0,4-3.49,9.17,9.17,0,0,0,2.09-6q0-6.07-9.75-11.49c-3.65-2-6.2-3.55-7.62-4.53a5.06,5.06,0,0,1-1.62-1.75A4.68,4.68,0,0,1,46,23.15a4.37,4.37,0,0,1,1.43-3.43,6.12,6.12,0,0,1,4.17-1.28c2.28,0,3.87.79,4.79,2.37a9.74,9.74,0,0,1,1,4h5.08a13,13,0,0,0-1.47-6.23Q58.28,14,51.31,14a10.29,10.29,0,0,0-7.61,2.88A9.53,9.53,0,0,0,40.81,24a8.32,8.32,0,0,0,.78,3.55,9.35,9.35,0,0,0,2,2.48,16.19,16.19,0,0,0-4.49,3.93,8.06,8.06,0,0,0-1.71,5,8.46,8.46,0,0,0,2.28,5.77A23,23,0,0,0,44,48.24m0-14.12a9.77,9.77,0,0,1,2.52-1.8L55,37.45a22.74,22.74,0,0,1,3.89,2.78,5.3,5.3,0,0,1,1.53,3.83,6.29,6.29,0,0,1-1.44,4.21,9.21,9.21,0,0,1-2.53,2l-10.88-7a6.75,6.75,0,0,1-2.69-3,6,6,0,0,1-.38-2.2A5.48,5.48,0,0,1,44,34.12M360.76,70l-5.31-12h-3.27l7.31,15v9.16h2.79V73.07l6.83-15h-3Zm-36.11,5.34-.52,4.34-.48-4.34L320.08,58h-3.26l-3.57,16.57-.74,4.82L312,74.61,308.72,58h-3l5.05,24.19h3.52l3.83-18.58.22-3.59.52,3.59,3.53,18.58h3.56L331,58h-2.79ZM202.9,56.23h2.27l4.05-4.63h-3.54ZM346.62,80,339.05,58h-4.57V82.23h2.79V60.06l7.56,22.17h4.58V58h-2.79Zm-135-18.46a6.74,6.74,0,0,0-2.5-2.91,7.26,7.26,0,0,0-4.14-1.11,8,8,0,0,0-4.7,1.44,7.15,7.15,0,0,0-2.36,3.19,14.93,14.93,0,0,0-.8,4c-.1,1.33-.16,2.53-.2,3.59a31.3,31.3,0,0,0,.68,7.08A7.89,7.89,0,0,0,200,81.14a7.21,7.21,0,0,0,4.92,1.57q5.12,0,6.64-3.55A22.48,22.48,0,0,0,213,70.68V70a29.34,29.34,0,0,0-.29-4.6,14.35,14.35,0,0,0-1.16-3.91m-1.88,14.9a5.59,5.59,0,0,1-1.49,2.87A4.29,4.29,0,0,1,205,80.43a4,4,0,0,1-3.24-1.34,6.81,6.81,0,0,1-1.55-3.16,22.44,22.44,0,0,1-.45-4c0-.56,0-1.06,0-1.52s0-.69,0-.7a26.81,26.81,0,0,1,.39-4.69,8,8,0,0,1,1.53-3.56,3.73,3.73,0,0,1,3.13-1.4,4.39,4.39,0,0,1,3.4,1.27,6.28,6.28,0,0,1,1.52,3.33,27.39,27.39,0,0,1,.39,5V71c0,.21,0,.47,0,.78s0,.51,0,.59a20.79,20.79,0,0,1-.35,4M294.55,58l-6.83,24.19h3l1.75-6.88h7.61l1.74,6.88h3.05L298.33,58Zm-1.27,14.77,3-12.49,3,12.49Zm-59.15,2.54-.53,4.34-.47-4.34L229.56,58H226.3l-3.57,16.57L222,79.43l-.52-4.82L218.2,58h-3l5.05,24.19h3.52l3.83-18.58.22-3.59.52,3.59,3.53,18.58h3.56L240.44,58h-2.79ZM146.65,58l-6.83,24.19h3l1.75-6.88h7.61L154,82.23h3L150.43,58Zm-1.27,14.77,3-12.49,3.05,12.49Zm37.27-10.09a3.57,3.57,0,0,1,3.68-2.93c1.82,0,3,.53,3.64,1.58a7.83,7.83,0,0,1,.93,4h2.52a4.3,4.3,0,0,0,0-.61,9.06,9.06,0,0,0-.95-4.44A5.55,5.55,0,0,0,190,58a8,8,0,0,0-3.42-.71,7.55,7.55,0,0,0-4.41,1.34,7,7,0,0,0-2.36,3.19,14,14,0,0,0-.89,3.93c-.12,1.33-.17,2.94-.17,4.82a37.76,37.76,0,0,0,.29,5,11.69,11.69,0,0,0,1.11,3.71,6.15,6.15,0,0,0,2.38,2.52,8.68,8.68,0,0,0,4.05,1,6.81,6.81,0,0,0,3.13-.68,5.63,5.63,0,0,0,2.14-1.87,8.36,8.36,0,0,0,1.21-2.73,14,14,0,0,0,.38-3.3c0-.37,0-.65,0-.85h-2.78a17,17,0,0,1-.28,3.2,5.26,5.26,0,0,1-1.23,2.59,3.5,3.5,0,0,1-2.8,1.09,3.79,3.79,0,0,1-3-1.48,7.25,7.25,0,0,1-1.26-3.34,36.6,36.6,0,0,1-.27-4.86v-1a24.6,24.6,0,0,1,.85-6.86M167.14,58H160V82.23H167A6.74,6.74,0,0,0,172.45,80a10.47,10.47,0,0,0,2.31-5,34,34,0,0,0,.48-5.8q0-11.22-8.1-11.22m0,21.65h-4.31V60.58h3.53a5.39,5.39,0,0,1,3.9,1.23A5.64,5.64,0,0,1,171.85,65a32,32,0,0,1,.34,5.24c0,.09,0,.26,0,.5s0,.51,0,.77q0,8.16-5.09,8.15m-30,.4a24.42,24.42,0,0,1-.53-3.44c-.12-1.36-.23-2.55-.32-3.58a3.46,3.46,0,0,0-.63-1.56,2.71,2.71,0,0,0-1-.88,5.16,5.16,0,0,0-1.16-.41l-1-.21a4.89,4.89,0,0,0,2.18-.85,5.64,5.64,0,0,0,1.72-1.9,5.45,5.45,0,0,0,.67-2.67v-.45a7.25,7.25,0,0,0-1.33-3.86,5.15,5.15,0,0,0-2.57-1.79,12.12,12.12,0,0,0-3.45-.45h-7.09V82.23h2.79V71.54h4.78a3.19,3.19,0,0,1,2.72,1,5.61,5.61,0,0,1,.94,3c.1,1.32.18,2.57.26,3.76a7.67,7.67,0,0,0,.64,2.87h3.31v-.75c-.4,0-.7-.46-.93-1.39M129.73,69h-4.3V60.58h3.78a5.76,5.76,0,0,1,3.48.87A4,4,0,0,1,134,64.39c0,.07,0,.17,0,.31s0,.22,0,.28a4.3,4.3,0,0,1-.51,2.15,3.28,3.28,0,0,1-1.47,1.38,5.31,5.31,0,0,1-2.36.49m134.91-9.45A8.76,8.76,0,0,0,259.41,58h-6.84V82.23h2.79V72h4.3a3.91,3.91,0,0,0,.55,0,6.94,6.94,0,0,0,3.78-.92,5.22,5.22,0,0,0,2.12-2.46,9.09,9.09,0,0,0,.64-3.5c0-2.75-.71-4.62-2.11-5.63m-2,8.93a5,5,0,0,1-3.47,1h-3.79V60.84h4.05c2.86,0,4.3,1.36,4.3,4.08,0,1.71-.36,2.9-1.09,3.56M375.3,62.72A3.57,3.57,0,0,1,379,59.79c1.82,0,3,.53,3.65,1.58a7.93,7.93,0,0,1,.92,4h2.52a4,4,0,0,0,0-.61,9.06,9.06,0,0,0-.95-4.44,5.53,5.53,0,0,0-2.5-2.39,7.92,7.92,0,0,0-3.41-.71,7.58,7.58,0,0,0-4.42,1.34,7.07,7.07,0,0,0-2.36,3.19,14.71,14.71,0,0,0-.89,3.93c-.11,1.33-.17,2.94-.17,4.82a37.76,37.76,0,0,0,.29,5,11.69,11.69,0,0,0,1.12,3.71,6.08,6.08,0,0,0,2.38,2.52,8.68,8.68,0,0,0,4.05,1,6.87,6.87,0,0,0,3.13-.68,5.78,5.78,0,0,0,2.14-1.87,8.34,8.34,0,0,0,1.2-2.73,13.45,13.45,0,0,0,.39-3.3,8.44,8.44,0,0,0,0-.85h-2.78a17.93,17.93,0,0,1-.27,3.2,5.34,5.34,0,0,1-1.23,2.59A3.53,3.53,0,0,1,379,80.21a3.75,3.75,0,0,1-3-1.48,7.14,7.14,0,0,1-1.26-3.34,36.6,36.6,0,0,1-.27-4.86v-1a25,25,0,0,1,.84-6.86M285.05,80.09a24.42,24.42,0,0,1-.53-3.44c-.13-1.36-.23-2.55-.33-3.58a3.58,3.58,0,0,0-.62-1.56,2.73,2.73,0,0,0-1-.88,5.26,5.26,0,0,0-1.15-.41l-1-.21a4.81,4.81,0,0,0,2.17-.85,5.44,5.44,0,0,0,1.72-1.9,5.35,5.35,0,0,0,.67-2.67v-.45a7.17,7.17,0,0,0-1.32-3.86,5.22,5.22,0,0,0-2.58-1.79,12,12,0,0,0-3.45-.45h-7.08V82.23h2.78V71.54h4.79a3.21,3.21,0,0,1,2.72,1,5.61,5.61,0,0,1,.94,3c.09,1.32.18,2.57.25,3.76a7.65,7.65,0,0,0,.65,2.87H286v-.75c-.4,0-.71-.46-.93-1.39M277.62,69h-4.3V60.58h3.79a5.76,5.76,0,0,1,3.48.87,4,4,0,0,1,1.34,2.94,2,2,0,0,0,0,.31c0,.13,0,.22,0,.28a4.41,4.41,0,0,1-.5,2.15A3.26,3.26,0,0,1,280,68.51a5.25,5.25,0,0,1-2.36.49M402,58V68h-9.39V58h-2.52V82.23h2.52V70.53H402v11.7h2.53V58Zm-91.48-20.1h7.6l1.75,6.83h3l-6.57-24h-3.79l-6.82,24h3ZM314.33,23l3,12.41h-6.05ZM143.68,34.15h4.79a3.22,3.22,0,0,1,2.72,1.05,5.46,5.46,0,0,1,.93,3c.1,1.31.19,2.55.26,3.73a7.4,7.4,0,0,0,.65,2.85h3.3V44c-.39,0-.7-.46-.93-1.39a27.17,27.17,0,0,1-.53-3.41c-.12-1.35-.23-2.53-.32-3.55a3.58,3.58,0,0,0-.62-1.56,2.88,2.88,0,0,0-1-.87,4.69,4.69,0,0,0-1.16-.4l-1-.22a4.73,4.73,0,0,0,2.17-.84,5.51,5.51,0,0,0,1.72-1.89,5.34,5.34,0,0,0,.67-2.64v-.45A7.22,7.22,0,0,0,154,23a5.2,5.2,0,0,0-2.58-1.78,12.39,12.39,0,0,0-3.45-.45h-7.09v24h2.79Zm0-10.88h3.78a5.71,5.71,0,0,1,3.48.87,3.88,3.88,0,0,1,1.35,2.92c0,.07,0,.17,0,.3s0,.23,0,.28a4.34,4.34,0,0,1-.5,2.14,3.39,3.39,0,0,1-1.48,1.37,5.31,5.31,0,0,1-2.36.48h-4.3ZM300.93,43.91a5.25,5.25,0,0,0,2.32-2.43,9.1,9.1,0,0,0,.73-3.8,7.16,7.16,0,0,0-.88-3.76,4.27,4.27,0,0,0-3.16-1.81,6.49,6.49,0,0,0,2.56-1.81,4.93,4.93,0,0,0,1-3.24,6.24,6.24,0,0,0-1-3.77,5.44,5.44,0,0,0-2.62-2,10.22,10.22,0,0,0-3.44-.57h-6.32v24h6.84a8.51,8.51,0,0,0,4-.86M292.84,23h4.05a5,5,0,0,1,2,.6A2.7,2.7,0,0,1,300.05,25a5.21,5.21,0,0,1,.37,2.11,4.54,4.54,0,0,1-.92,2.86,3.71,3.71,0,0,1-3.13,1.19h-3.53Zm0,10.63h4.05a4.58,4.58,0,0,1,3.22,1,4.38,4.38,0,0,1,1,3.34c0,2.88-1.25,4.31-3.75,4.31h-4.56ZM247.33,20.75h-3.78l-6.83,24h3l1.75-6.83h7.6l1.75,6.83h3Zm-5.05,14.67,3-12.41,3,12.41Zm-116.83,1,2.52-3,6.35,11.39h3.54l-8.1-13.92,7.84-10.1h-3.54l-8.61,12.14V20.75h-2.79v24h2.79Zm57.16,8.87a5.56,5.56,0,0,0,2.77-.59,3.62,3.62,0,0,0,1.53-1.64,7.74,7.74,0,0,0,.62-2.43c.08-.9.13-2.05.13-3.43V20.75h-2.79V38.94a5.93,5.93,0,0,1-.41,2.5,2.06,2.06,0,0,1-1,1.06,4.43,4.43,0,0,1-1.56.23,2.72,2.72,0,0,1-1.51-.35,1.79,1.79,0,0,1-.68-1,11.41,11.41,0,0,1-.26-2.27c0-1.09-.09-1.73-.11-1.91h-2.78c0,.32,0,.82,0,1.48a8.35,8.35,0,0,0,1.22,4.94c.8,1.12,2.27,1.67,4.39,1.67Zm39.71-19,.22-3.56.52,3.56,3.53,18.45h3.56l5-24h-2.79l-3.52,17.19-.52,4.31-.48-4.31-3.57-17.19h-3.26L217.49,37.2,216.75,42l-.52-4.79L213,20.75h-3.05l5.05,24h3.52ZM206.44,41.73a21.82,21.82,0,0,0,1.48-8.42v-.68a30.66,30.66,0,0,0-.31-4.54,13.41,13.41,0,0,0-1.16-3.89A7,7,0,0,0,204,21.32a7.34,7.34,0,0,0-4.14-1.08,8,8,0,0,0-4.72,1.39,6.82,6.82,0,0,0-2.36,3.19,14.43,14.43,0,0,0-.81,4c-.09,1.42-.16,2.6-.21,3.56a30.06,30.06,0,0,0,.69,7,8,8,0,0,0,2.47,4.33,7.32,7.32,0,0,0,4.94,1.53q5.13,0,6.61-3.52m-11.38-3.19a21.12,21.12,0,0,1-.46-4c0-1.44-.07-2.17-.07-2.18a25,25,0,0,1,.39-4.67,8,8,0,0,1,1.53-3.53,3.77,3.77,0,0,1,3.12-1.41A4.41,4.41,0,0,1,203,24a6.5,6.5,0,0,1,1.54,3.31,29.45,29.45,0,0,1,.36,5c0,.26,0,.69,0,1.28s0,1.05,0,1.37a20.37,20.37,0,0,1-.34,4,5.65,5.65,0,0,1-1.48,2.87A4.39,4.39,0,0,1,199.83,43a4.07,4.07,0,0,1-3.23-1.31,6.87,6.87,0,0,1-1.54-3.14m91.21-15.27V20.75H272.35l0,2.52h10.87l-11.13,19v2.52h14.4V42.25H275.17Zm-21,21.5h2.79v-24H265.3Zm-100.4-24-6.83,24h3.05l1.74-6.83h7.61l1.75,6.83h3l-6.57-24Zm-1.26,14.67,3-12.41,3,12.41Z"/></svg>